<svg viewBox="0 0 274 223" xmlns="http://www.w3.org/2000/svg"><path d="m265.837 4.924c-10.837 6.427-22.841 11.095-35.617 13.611-10.232-10.901-24.809-17.713-40.941-17.713-30.977 0-56.091 25.113-56.091 56.088 0 4.396.497 8.677 1.453 12.782-46.616-2.339-87.945-24.669-115.609-58.603-4.828 8.284-7.594 17.919-7.594 28.198 0 19.459 9.903 36.627 24.953 46.685-9.195-.291-17.843-2.814-25.406-7.015-.004.234-.004.469-.004.705 0 27.176 19.333 49.846 44.993 54.998-4.707 1.282-9.662 1.967-14.778 1.967-3.614 0-7.128-.351-10.552-1.006 7.137 22.284 27.851 38.5 52.395 38.953-19.196 15.043-43.381 24.01-69.659 24.01-4.506 0-8.951-.263-13.32-.777v.031c23.949 15.339 52.238 24.484 82.64 25.102h7.908c100.226-2.514 154.957-86.523 154.957-159.526 0-2.432-.054-4.851-.162-7.256 10.958-7.908 20.468-17.787 27.988-29.035-10.059 4.461-20.869 7.476-32.215 8.832 11.58-6.942 20.473-17.934 24.661-31.031z" fill="#158cfb"/></svg>